<svg version="1.2" xmlns="http://www.w3.org/2000/svg" viewBox="0 0 104 104" width="104" height="104">
	<title>carousel-left-svg</title>
	<style>
		.s0 { opacity: .2;fill: #000000 } 
		.s1 { fill: #ffffff } 
	</style>
	<g id="Layer">
		<path id="Layer" class="s0" d="m52 104c-28.8 0-52-23.2-52-52 0-28.8 23.2-52 52-52 28.8 0 52 23.2 52 52 0 28.8-23.2 52-52 52z"/>
	</g>
	<path id="Layer" fill-rule="evenodd" class="s1" d="m30.2 57.1c0 0.8 0 1.3 0.1 1.9h-2.2c0-0.6 0-1.1 0-1.9v-6.3c0-0.7 0-1.2 0-1.7h5.4c2.6 0 3.6 0.9 3.6 3.4v0.1c0 2.5-1 3.5-3.6 3.5-1 0-2.2 0-3.3 0zm3-6.3h-3v3.4h3c1.2 0 1.7-0.4 1.7-1.7 0-1.3-0.5-1.7-1.7-1.7zm8.3 6.2v-6.2c0-0.7 0-1.2 0-1.8h5.4c2.6 0 3.6 0.8 3.6 3.3 0 1.7-0.5 2.6-1.9 3q0.4 0.7 0.8 1.5 0.7 1.1 1.4 2.2h-2.4q-0.5-0.8-0.9-1.6l-1-1.7h-2.9v1.3c0 0.8 0 1.4 0 2h-2.1c0-0.6 0-1.2 0-2zm5.1-6.2h-3v3.1h3c1.3 0 1.8-0.4 1.8-1.6 0-1.1-0.5-1.5-1.8-1.5zm8.4 6.2v-6.2c0-0.7 0-1.2 0-1.8h7.7v1.8c-1 0-3.3 0-4.6 0h-1v2.3h5v1.7c-0.8 0-2.8 0-3.9 0h-1.1v2.4h1c1.5 0 3.7 0 4.8 0v1.8h-7.9c0-0.6 0-1.2 0-2zm18.2 2h-3.3c-0.7-2.1-2.8-8.1-3.5-10h2.3l1.5 4.6c0.4 1.2 0.8 2.5 1.1 3.5h0.6c0.3-1 0.7-2.3 1.1-3.5l1.5-4.6h2.3c-0.7 1.9-2.9 7.9-3.6 10z"/>
</svg>