<svg xmlns="http://www.w3.org/2000/svg" xmlns:xlink="http://www.w3.org/1999/xlink" width="100.373" height="86.565" viewBox="0 0 100.373 86.565">
  <defs>
    <clipPath id="clip-path">
      <rect id="Rectangle_383" data-name="Rectangle 383" width="100.373" height="86.565" fill="none"/>
    </clipPath>
  </defs>
  <g id="Group_179225" data-name="Group 179225" transform="translate(-682 -4857.091)">
    <path id="Path_95502" data-name="Path 95502" d="M6,0H84a6,6,0,0,1,6,6V54a6,6,0,0,1-6,6H6a6,6,0,0,1-6-6V6A6,6,0,0,1,6,0Z" transform="translate(683 4857.501)" fill="#fac914"/>
    <rect id="Rectangle_26869" data-name="Rectangle 26869" width="86" height="60" rx="6" transform="translate(695 4868.501)" fill="#fff"/>
    <path id="Path_95465" data-name="Path 95465" d="M5601.781,4626h33.136v17.257s-.272,5.474-7.934,7.292c-9.87.054-18.267,0-18.267,0s-6.564-2.4-6.935-7.292S5601.781,4626,5601.781,4626Z" transform="translate(-4867 291.501)" fill="#fac914"/>
    <g id="Group_44449" data-name="Group 44449" transform="translate(682 4857.091)" clip-path="url(#clip-path)">
      <path id="Path_70287" data-name="Path 70287" d="M89.635,22.307H14.33c-.234,0-.47.015-.7,0-.384-.027-.547.114-.543.521q.024,2.394,0,4.786c0,.44.17.589.584.553.233-.02.469,0,.7,0H89.646v3.343H13.134c-.018.32-.045.57-.045.821q0,15.485,0,30.97a4.523,4.523,0,0,0,4.8,4.81q13.619,0,27.239,0h.978v3.365h-.78q-13.726,0-27.451,0a7.858,7.858,0,0,1-8.14-8.185q.008-22.665,0-45.329a7.84,7.84,0,0,1,8.231-8.228q36.53,0,73.061,0A7.8,7.8,0,0,1,99,16.45a9.262,9.262,0,0,1,.087,1.472q.007,22.665,0,45.329a7.855,7.855,0,0,1-8.244,8.22c-1.308,0-2.617,0-4.029,0,0,.414.016.758,0,1.1A32.508,32.508,0,0,1,86.5,77.4a10.021,10.021,0,0,1-9.794,7.875q-8.482.015-16.963,0a10.068,10.068,0,0,1-10.037-9.7c-.114-5.487-.037-10.98-.028-16.469a1.618,1.618,0,0,1,1.712-1.741,18.593,18.593,0,0,1,2.041.008c.661.052.9-.139.878-.843-.048-2.063.044-4.131-.027-6.193-.225-6.489,3.946-11.22,10.026-12.513a16.256,16.256,0,0,1,12.354,1.83,11.208,11.208,0,0,1,5.5,9.446c.078,1.491.012,2.989.012,4.568-1.05,0-2.029.017-3-.023-.115,0-.306-.314-.312-.488-.033-.867-.046-1.737-.011-2.6.218-5.435-3.129-8.649-7.872-9.54a13.069,13.069,0,0,0-8.887,1.208,7.916,7.916,0,0,0-4.42,7.038c-.087,2.555-.026,5.115-.027,7.671a3.193,3.193,0,0,0,.071.432H84.588c1.692,0,2.225.536,2.226,2.235,0,2.6.016,5.209-.012,7.813-.007.569.179.723.724.707,1.219-.035,2.44,0,3.659-.014a4.459,4.459,0,0,0,4.535-4.561q.007-22.946,0-45.893a4.472,4.472,0,0,0-4.327-4.561c-.211-.014-.422-.009-.633-.009q-36.214,0-72.428.008a7.269,7.269,0,0,0-2.017.211c-2.064.6-3.477,2.419-3.208,5.286.012.136.232.314.388.359a2.614,2.614,0,0,0,.7.019H89.635ZM53.056,60.741c-.016.212-.033.327-.033.443,0,4.643-.033,9.285.009,13.928a6.8,6.8,0,0,0,6.883,6.811q8.3.034,16.6,0a6.84,6.84,0,0,0,6.932-6.982q.012-6.718,0-13.436c0-.247-.027-.493-.043-.765Z" transform="translate(1.284 1.282)"/>
      <path id="Path_70288" data-name="Path 70288" d="M92.456,7.774H89.115c-.04-.229-.079-.453-.118-.677a4.464,4.464,0,0,0-4.168-3.735c-.327-.02-.656-.016-.985-.016H8.332c-3.151,0-4.975,1.828-4.975,4.986V52.738c0,3.6.942,4.824,4.429,5.7v3.232a6.29,6.29,0,0,1-3.14-.642A7.626,7.626,0,0,1,.018,53.75Q-.018,33.024.014,12.3A48.312,48.312,0,0,1,.162,6.541,7.665,7.665,0,0,1,7.39.011C7.6,0,7.812,0,8.023,0Q46.2,0,84.379,0a7.772,7.772,0,0,1,7.855,6.16c.111.5.141,1.011.222,1.612" transform="translate(0 0)"/>
      <rect id="Rectangle_380" data-name="Rectangle 380" width="13.62" height="3.247" transform="translate(31.244 49.477)" fill="#007cc3"/>
      <path id="Path_70289" data-name="Path 70289" d="M27.624,51.815h.8c4.009,0,8.019.017,12.028-.018.7-.006.888.213.842.876-.055.788-.014,1.583-.014,2.427H27.624Z" transform="translate(3.641 6.827)" fill="#007cc3"/>
      <path id="Path_70290" data-name="Path 70290" d="M27.578,35.562H41.233V38.83c-.284.016-.535.041-.787.041-4.008,0-8.017-.015-12.026.017-.682,0-.905-.188-.856-.867.058-.789.014-1.585.014-2.458" transform="translate(3.633 4.687)" fill="#007cc3"/>
      <rect id="Rectangle_381" data-name="Rectangle 381" width="3.861" height="3.253" transform="translate(23.538 49.48)" fill="#007cc3"/>
      <rect id="Rectangle_382" data-name="Rectangle 382" width="3.863" height="3.231" transform="translate(23.528 58.684)" fill="#007cc3"/>
      <path id="Path_70291" data-name="Path 70291" d="M20.745,35.574h3.9v3.281c-1.217,0-2.4.011-3.589-.019-.109,0-.3-.277-.3-.429-.028-.911-.014-1.823-.014-2.833" transform="translate(2.734 4.689)" fill="#007cc3"/>
      <path id="Path_70292" data-name="Path 70292" d="M63.655,70.964H60.309c0-.855-.024-1.669.01-2.482a.908.908,0,0,0-.583-.972,4.7,4.7,0,0,1-2.355-5.369,4.742,4.742,0,0,1,9.152-.1,4.681,4.681,0,0,1-2.344,5.488.859.859,0,0,0-.543.921c.033.815.009,1.632.009,2.518m-.289-7.61a1.391,1.391,0,1,0-1.406,1.373,1.426,1.426,0,0,0,1.406-1.373" transform="translate(7.544 7.723)" fill="#fff"/>
    </g>
  </g>
</svg>
