<svg xmlns="http://www.w3.org/2000/svg" xmlns:xlink="http://www.w3.org/1999/xlink" width="1920" height="570" viewBox="0 0 1920 570">
  <defs>
    <clipPath id="clip-path">
      <rect id="Rectangle_26877" data-name="Rectangle 26877" width="1920" height="570" transform="translate(0 4695)" fill="#fff" stroke="#707070" stroke-width="1" opacity="0.1"/>
    </clipPath>
  </defs>
  <g id="Mask_Group_49" data-name="Mask Group 49" transform="translate(0 -4695)" clip-path="url(#clip-path)">
    <g id="Group_179248" data-name="Group 179248">
      <path id="Path_95517" data-name="Path 95517" d="M1025.733,258.415c11.109-11.45,70.126-108.337,75.681-124.16-93.312-1.453-222.642,40.376-303.378,68.816-93.924,33.1-169.064,77.4-244.944,125.727C425.884,409.791,204.979,612.338,300.926,773.669c39.435,66.324,134.742,111.115,214.781,156.289,40.361,22.73,77.817,45.645,112.852,69.415,29.922,20.238,84.909,56.981,59.6,114.091-46.158,104.278-267.973,157.5-383.474,173.508-45.346,6.3-135.724,6.3-170.033,21.648l-27.5,113.906c175.217-14.8,414.65-101.914,525.123-188.177,54.361-42.441,147.759-117.125,114.86-233.352-26.362-93.042-105.916-131.067-182.281-177.382-61.168-37.1-179.148-100.39-198.018-160.832-52.851-169.449,225.974-310.642,350.69-351.8C820.281,277.086,905.917,260.352,1025.733,258.415Z" transform="translate(-485.62 3886.419)" fill="#f4b333" stroke="#f4b333" stroke-width="1" fill-rule="evenodd" opacity="0.2"/>
      <path id="Path_95518" data-name="Path 95518" d="M1025.733,258.415c11.109-11.45,70.126-108.337,75.681-124.16-93.312-1.453-222.642,40.376-303.378,68.816-93.924,33.1-169.064,77.4-244.944,125.727C425.884,409.791,204.979,612.338,300.926,773.669c39.435,66.324,134.742,111.115,214.781,156.289,40.361,22.73,77.817,45.645,112.852,69.415,29.922,20.238,84.909,56.981,59.6,114.091-46.158,104.278-267.973,157.5-383.474,173.508-45.346,6.3-135.724,6.3-170.033,21.648l-27.5,113.906c175.217-14.8,414.65-101.914,525.123-188.177,54.361-42.441,147.759-117.125,114.86-233.352-26.362-93.042-105.916-131.067-182.281-177.382-61.168-37.1-179.148-100.39-198.018-160.832-52.851-169.449,225.974-310.642,350.69-351.8C820.281,277.086,905.917,260.352,1025.733,258.415Z" transform="translate(927.601 4137.232) rotate(-11)" fill="#007cc3" fill-rule="evenodd" opacity="0.1"/>
    </g>
  </g>
</svg>
